<?xml version="1.0" encoding="UTF-8"?>
<svg width="293px" height="105px" viewBox="0 0 293 105" version="1.1" xmlns="http://www.w3.org/2000/svg" xmlns:xlink="http://www.w3.org/1999/xlink">
    <title>编组</title>
    <defs>
        <polygon id="path-1" points="0 104.185 292.892 104.185 292.892 0 0 0"></polygon>
    </defs>
    <g id="页面-1" stroke="none" stroke-width="1" fill="none" fill-rule="evenodd">
        <g id="编组">
            <path d="M67.409,95.5868 L60.451,95.5168 L47.156,95.5168 L47.156,102.3328 C47.156,103.3118 46.362,104.1068 45.382,104.1068 L40.198,104.1068 L40.198,81.5078 L47.156,81.5078 L47.156,89.7388 L60.451,89.7388 L60.451,81.5078 L67.409,81.5078 L67.409,95.5868 Z" id="Fill-1" fill="#FEFEFE"></path>
            <path d="M90.3149,93.8257 C90.3149,100.6787 85.5699,104.1067 76.0789,104.1067 L74.5929,104.1067 C65.1029,104.1067 60.3569,100.6787 60.3569,93.8257 L60.3569,81.5077 L67.4429,81.5077 L67.4429,93.8257 C67.4429,95.8737 68.3479,97.1897 70.1589,97.7737 C71.1259,98.1087 73.1049,98.2757 76.0939,98.2757 C78.4719,98.2757 80.1659,98.0247 81.1759,97.5237 C82.5449,96.8767 83.2289,95.6437 83.2289,93.8257 L83.2289,87.7967 L90.3149,87.7967 L90.3149,93.8257 Z" id="Fill-3" fill="#FEFEFE"></path>
            <mask id="mask-2" fill="white">
                <use xlink:href="#path-1"></use>
            </mask>
            <g id="Clip-6"></g>
            <polygon id="Fill-5" fill="#FEFEFE" mask="url(#mask-2)" points="93.52 86.343 100.478 86.343 100.478 81.508 93.52 81.508"></polygon>
            <polygon id="Fill-7" fill="#FEFEFE" mask="url(#mask-2)" points="104.08 86.343 111.038 86.343 111.038 81.508 104.08 81.508"></polygon>
            <polygon id="Fill-8" fill="#FEFEFE" mask="url(#mask-2)" points="178.4575 98.328 178.3955 104.107 158.5465 104.107 158.5465 81.711 178.3225 81.711 178.3955 87.488 165.5045 87.488 165.5045 89.879 181.7805 89.879 177.3085 95.658 165.5045 95.658 165.5045 98.328"></polygon>
            <path d="M212.5318,92.7065 C212.5318,95.9785 211.2528,98.6965 208.6958,100.8595 C206.1378,103.0245 202.9128,104.1065 199.0198,104.1065 L184.0168,104.1065 L184.0168,90.1275 L190.9748,90.1275 L190.9748,98.3285 L199.0198,98.3285 C200.9458,98.3285 202.5298,97.8355 203.7728,96.8485 C205.0148,95.8635 205.6358,94.5695 205.6358,92.9705 C205.6358,91.3715 205.0098,90.0575 203.7568,89.0305 C202.5028,88.0015 200.9248,87.4875 199.0198,87.4875 L184.0168,87.4875 L188.4278,81.7105 L199.0198,81.7105 C202.9748,81.7105 206.2148,82.7245 208.7418,84.7545 C211.2688,86.7845 212.5318,89.4345 212.5318,92.7065" id="Fill-9" fill="#FEFEFE" mask="url(#mask-2)"></path>
            <polygon id="Fill-10" fill="#FEFEFE" mask="url(#mask-2)" points="215.42 104.107 221.342 104.107 221.342 87.741 215.42 87.741"></polygon>
            <path d="M226.3848,104.1065 L230.5778,98.3275 L239.9278,98.3275 L234.1188,90.2525 L224.0238,104.1065 L215.4198,104.1065 L229.7708,84.1955 C230.2258,83.5325 230.8578,82.9535 231.6648,82.4565 C232.5548,81.9175 233.4148,81.6475 234.2438,81.6475 C235.0928,81.6475 235.9518,81.9175 236.8218,82.4565 C237.5878,82.9315 238.2088,83.5115 238.6848,84.1955 L252.6938,104.1065 L226.3848,104.1065 Z" id="Fill-11" fill="#FEFEFE" mask="url(#mask-2)"></path>
            <polygon id="Fill-12" fill="#FEFEFE" mask="url(#mask-2)" points="82.949 86.343 90.315 86.343 90.315 81.508 82.949 81.508"></polygon>
            <polygon id="Fill-13" fill="#FEFEFE" mask="url(#mask-2)" points="93.52 104.107 100.478 104.107 100.478 87.741 93.52 87.741"></polygon>
            <polygon id="Fill-14" fill="#FEFEFE" mask="url(#mask-2)" points="104.08 104.107 111.038 104.107 111.038 87.741 104.08 87.741"></polygon>
            <path d="M130.8368,92.6405 L127.2078,88.3035 C126.1308,86.5645 124.8568,85.6935 123.3868,85.6935 C122.4338,85.6935 121.5898,85.9695 120.8558,86.5175 C120.1198,87.0655 119.6388,87.7445 119.4108,88.5525 L113.6018,104.1845 L121.2438,104.1845 L124.1628,92.3495 L127.0488,95.5645 C128.2928,94.2335 129.7258,93.2645 130.8368,92.6405" id="Fill-15" fill="#FEFEFE" mask="url(#mask-2)"></path>
            <path d="M137.3726,93.061 L134.0416,95.208 L130.8366,93.065 C129.7326,94.049 128.7786,94.849 127.8446,96.06 L130.4686,99.375 C130.8206,99.933 131.3486,100.4 132.0536,100.772 C132.7566,101.145 133.4816,101.332 134.2276,101.332 C135.6766,101.332 136.8156,100.679 137.6436,99.375 L140.5786,95.88 C139.6346,94.662 138.4686,94.022 137.3726,93.061" id="Fill-16" fill="#FEFEFE" mask="url(#mask-2)"></path>
            <path d="M148.7023,88.5521 C148.4533,87.7451 147.9673,87.0661 147.2433,86.5181 C146.5173,85.9701 145.6683,85.6941 144.6953,85.6941 C143.2243,85.6941 141.9623,86.5641 140.9063,88.3041 L137.3233,92.5901 C138.4223,93.2001 139.8633,94.1561 141.1233,95.4801 L143.9193,92.3501 L146.8703,104.1851 L154.4803,104.1851 L148.7023,88.5521 Z" id="Fill-17" fill="#FEFEFE" mask="url(#mask-2)"></path>
            <path d="M126.5998,83.7898 C126.5998,84.7218 125.1618,85.4768 123.3868,85.4768 C121.6128,85.4768 120.1738,84.7218 120.1738,83.7898 C120.1738,82.8578 121.6128,82.1028 123.3868,82.1028 C125.1618,82.1028 126.5998,82.8578 126.5998,83.7898" id="Fill-18" fill="#FEFEFE" mask="url(#mask-2)"></path>
            <path d="M147.9178,83.7898 C147.9178,84.7218 146.4798,85.4768 144.7048,85.4768 C142.9308,85.4768 141.4918,84.7218 141.4918,83.7898 C141.4918,82.8578 142.9308,82.1028 144.7048,82.1028 C146.4798,82.1028 147.9178,82.8578 147.9178,83.7898" id="Fill-19" fill="#FEFEFE" mask="url(#mask-2)"></path>
            <polygon id="Fill-20" fill="#FEFEFE" mask="url(#mask-2)" points="215.42 86.478 221.326 86.478 221.326 81.648 215.42 81.648"></polygon>
            <path d="M253.7233,32.6006 C253.7233,32.1136 253.9383,31.7366 254.3723,31.4656 C254.8043,31.1956 255.3983,31.0596 256.1563,31.0596 L263.4543,31.0596 C264.5903,31.0596 265.5903,31.4656 266.4553,32.2766 L271.7263,37.4666 C272.2133,37.8456 272.5903,38.0336 272.8623,38.0336 C273.1313,38.0336 273.5103,37.8456 273.9973,37.4666 L279.0253,33.0056 C279.6193,32.4116 279.9173,31.7366 279.9173,30.9786 L279.9173,30.6546 C279.9173,29.5736 279.3763,29.0326 278.2953,29.0326 L255.9133,29.0326 C255.1553,29.0326 254.5613,28.8166 254.1283,28.3836 C253.6953,27.9516 253.4803,27.3576 253.4803,26.5996 L253.4803,24.3286 C253.4803,23.5726 253.6953,22.9786 254.1283,22.5446 C254.5613,22.1126 255.1553,21.8956 255.9133,21.8956 L263.8603,21.8956 C264.9413,21.8956 265.4823,21.3566 265.4823,20.2736 L265.4823,16.9496 C265.4823,15.8686 264.9413,15.3276 263.8603,15.3276 L255.3453,15.3276 C254.5873,15.3276 253.9933,15.1116 253.5613,14.6786 C253.1273,14.2466 252.9123,13.6526 252.9123,12.8946 L252.9123,10.0556 C252.9123,9.2996 253.1273,8.7056 253.5613,8.2716 C253.9933,7.8396 254.5873,7.6236 255.3453,7.6236 L263.8603,7.6236 C264.9413,7.6236 265.4823,7.2456 265.4823,6.4876 L265.4823,6.4066 C265.4823,5.8126 265.2923,5.1636 264.9143,4.4606 L264.2653,3.4066 C263.9413,2.8116 263.7793,2.3256 263.7793,1.9466 C263.7793,1.5146 263.9543,1.1636 264.3063,0.8926 C264.6573,0.6226 265.1573,0.4866 265.8063,0.4866 L277.8893,0.4866 C278.6463,0.4866 279.2403,0.7036 279.6743,1.1356 C280.1063,1.5686 280.3223,2.1636 280.3223,2.9196 L280.3223,6.0016 C280.3223,7.0836 280.8623,7.6236 281.9443,7.6236 L290.4593,7.6236 C291.2163,7.6236 291.8103,7.8396 292.2433,8.2716 C292.6753,8.7056 292.8923,9.2996 292.8923,10.0556 L292.8923,12.8946 C292.8923,13.6526 292.6753,14.2466 292.2433,14.6786 C291.8103,15.1116 291.2163,15.3276 290.4593,15.3276 L281.9443,15.3276 C280.8623,15.3276 280.3223,15.8686 280.3223,16.9496 L280.3223,20.2736 C280.3223,21.3566 280.8623,21.8956 281.9443,21.8956 L289.6483,21.8956 C290.4053,21.8956 290.9993,22.1126 291.4323,22.5446 C291.8653,22.9786 292.0813,23.5726 292.0813,24.3286 L292.0813,33.8166 C292.0813,34.9526 291.6213,35.9536 290.7033,36.8176 L281.8633,44.6836 C281.4303,45.1176 281.2143,45.4946 281.2143,45.8196 C281.2143,46.1976 281.4033,46.5766 281.7823,46.9546 L290.7843,55.6316 C291.3783,56.2276 291.6763,56.7946 291.6763,57.3346 C291.6763,57.7136 291.5003,58.0236 291.1493,58.2676 C290.7963,58.5106 290.2973,58.6326 289.6483,58.6326 L280.4033,58.6326 C279.3213,58.6326 278.3223,58.2266 277.4033,57.4156 L273.7543,53.8476 C273.3753,53.5236 272.9963,53.3606 272.6183,53.3606 C272.2943,53.3606 271.9153,53.5236 271.4833,53.8476 L267.1043,57.5776 C266.2933,58.3346 265.2923,58.7136 264.1033,58.7136 L254.7773,58.7136 C254.1283,58.7136 253.6143,58.5916 253.2363,58.3486 C252.8583,58.1056 252.6693,57.7946 252.6693,57.4156 C252.6693,56.8216 252.9933,56.2536 253.6423,55.7126 L263.9413,46.5486 C264.3733,46.1166 264.5903,45.7376 264.5903,45.4136 C264.5903,45.0366 264.3733,44.6306 263.9413,44.1976 L254.9393,35.3576 C254.1283,34.5466 253.7233,33.6286 253.7233,32.6006 L253.7233,32.6006 Z M229.8813,58.7946 C229.2323,58.7946 228.7323,58.6586 228.3813,58.3886 C228.0283,58.1176 227.8543,57.7686 227.8543,57.3346 C227.8543,56.7946 228.0693,56.2806 228.5023,55.7936 L231.5033,52.1446 C231.9893,51.4956 232.2333,50.8206 232.2333,50.1176 L232.2333,41.3586 C232.2333,40.8196 232.0573,40.4266 231.7063,40.1826 C231.3533,39.9396 230.9073,39.8996 230.3673,40.0616 L228.9083,40.4666 C228.4743,40.5756 228.2053,40.6286 228.0973,40.6286 C227.5013,40.6286 227.0293,40.4266 226.6783,40.0206 C226.3253,39.6156 226.1503,39.0616 226.1503,38.3586 L226.1503,34.7906 C226.1503,33.3846 226.8263,32.4926 228.1783,32.1136 L230.8543,31.3846 C231.7733,31.1146 232.2333,30.4926 232.2333,29.5186 L232.2333,18.9766 C232.2333,17.8956 231.6923,17.3546 230.6113,17.3546 L228.5833,17.3546 C227.8263,17.3546 227.2313,17.1396 226.7993,16.7056 C226.3663,16.2736 226.1503,15.6796 226.1503,14.9216 L226.1503,12.0836 C226.1503,11.3266 226.3663,10.7326 226.7993,10.2996 C227.2313,9.8676 227.8263,9.6506 228.5833,9.6506 L230.6113,9.6506 C231.6923,9.6506 232.2333,9.1106 232.2333,8.0286 L232.2333,6.3256 C232.2333,5.7316 232.0433,5.0826 231.6653,4.3796 L231.0163,3.3256 C230.6923,2.8386 230.5303,2.3796 230.5303,1.9466 C230.5303,1.4596 230.7183,1.0826 231.0973,0.8116 C231.4753,0.5416 231.9893,0.4056 232.6383,0.4056 L243.5863,0.4056 C244.3433,0.4056 244.9373,0.6226 245.3703,1.0546 C245.8023,1.4876 246.0193,2.0816 246.0193,2.8386 L246.0193,8.0286 C246.0193,9.1106 246.5593,9.6506 247.6413,9.6506 L248.0463,9.6506 C248.8033,9.6506 249.3973,9.8676 249.8303,10.2996 C250.2633,10.7326 250.4793,11.3266 250.4793,12.0836 L250.4793,14.9216 C250.4793,15.6796 250.2893,16.2736 249.9123,16.7056 C249.5333,17.1396 248.9923,17.3546 248.2903,17.3546 L247.6413,17.3546 C246.5593,17.3546 246.0193,17.8956 246.0193,18.9766 L246.0193,25.2206 C246.0193,25.8166 246.1673,26.2346 246.4653,26.4776 C246.7613,26.7216 247.1813,26.7616 247.7223,26.5996 C248.1543,26.4916 248.4523,26.4376 248.6143,26.4376 C249.2083,26.4376 249.6683,26.6276 249.9933,27.0046 C250.3173,27.3836 250.4793,27.9246 250.4793,28.6266 L250.4793,32.1956 C250.4793,33.6016 249.8033,34.4936 248.4523,34.8716 L247.3983,35.1956 C246.4783,35.5196 246.0193,36.1156 246.0193,36.9796 L246.0193,53.4426 C246.0193,55.0106 245.4783,56.2946 244.3973,57.2946 C243.3153,58.2936 242.0173,58.7946 240.5043,58.7946 L229.8813,58.7946 Z M215.8603,33.8986 C216.5623,33.7906 217.1033,33.9386 217.4823,34.3446 C217.8593,34.7496 218.0493,35.3576 218.0493,36.1686 L218.0493,39.9806 C218.0493,41.4396 217.3193,42.3056 215.8603,42.5756 L215.1303,42.6566 C214.1573,42.8186 213.6703,43.4146 213.6703,44.4406 L213.6703,56.3616 C213.6703,57.1196 213.4533,57.7136 213.0213,58.1456 C212.5883,58.5776 211.9943,58.7946 211.2373,58.7946 L203.2903,58.7946 C202.5323,58.7946 201.9383,58.5776 201.5063,58.1456 C201.0723,57.7136 200.8573,57.1196 200.8573,56.3616 L200.8573,46.3866 C200.8573,45.8466 200.7073,45.4416 200.4113,45.1706 C200.1133,44.9006 199.6943,44.7926 199.1543,44.8456 L187.0713,46.5486 C186.2603,46.6576 185.6243,46.5086 185.1653,46.1026 C184.7053,45.6976 184.4763,45.0896 184.4763,44.2786 L184.4763,40.4666 C184.4763,39.0076 185.2323,38.1426 186.7463,37.8716 L199.3163,36.1686 C200.3433,36.0066 200.8573,35.4126 200.8573,34.3846 L200.8573,6.3256 C200.8573,5.7316 200.6673,5.0826 200.2893,4.3796 L199.6413,3.3256 C199.3163,2.8386 199.1543,2.3796 199.1543,1.9466 C199.1543,1.4596 199.3433,1.0826 199.7223,0.8116 C200.0993,0.5416 200.6143,0.4056 201.2623,0.4056 L211.2373,0.4056 C211.9943,0.4056 212.5883,0.6226 213.0213,1.0546 C213.4533,1.4876 213.6703,2.0816 213.6703,2.8386 L213.6703,32.4386 C213.6703,32.9796 213.8183,33.3846 214.1163,33.6546 C214.4133,33.9256 214.8323,34.0336 215.3733,33.9796 L215.8603,33.8986 Z M193.6393,6.4066 C195.0453,6.4066 195.9373,7.0836 196.3163,8.4346 L198.0193,14.3536 C198.1263,14.7876 198.1813,15.0836 198.1813,15.2466 C198.1813,15.8416 197.9913,16.3006 197.6133,16.6246 C197.2343,16.9496 196.6933,17.1116 195.9913,17.1116 L188.8553,17.1116 C187.4483,17.1116 186.5563,16.4356 186.1793,15.0836 L184.4763,9.1636 C184.3673,8.7316 184.3133,8.4346 184.3133,8.2716 C184.3133,7.6776 184.5023,7.2176 184.8813,6.8936 C185.2593,6.5686 185.8003,6.4066 186.5033,6.4066 L193.6393,6.4066 Z M193.5583,22.7066 C194.9643,22.7066 195.8563,23.3836 196.2353,24.7346 L197.9383,30.6546 C198.0453,31.0876 198.1003,31.3576 198.1003,31.4656 C198.1003,32.0606 197.8973,32.5336 197.4913,32.8846 C197.0863,33.2366 196.5313,33.4116 195.8293,33.4116 L188.6933,33.4116 C187.2863,33.4116 186.3943,32.7366 186.0163,31.3846 L184.3133,25.4646 C184.2053,25.0326 184.1513,24.7626 184.1513,24.6536 C184.1513,24.0586 184.3543,23.5866 184.7593,23.2336 C185.1653,22.8826 185.7193,22.7066 186.4223,22.7066 L193.5583,22.7066 Z M182.3673,53.3606 C182.4203,54.1186 182.2183,54.7266 181.7593,55.1856 C181.2993,55.6456 180.6913,55.8746 179.9343,55.8746 L176.8533,55.8746 C175.2843,55.8746 174.4733,55.0916 174.4203,53.5236 L173.2033,29.8436 C173.1493,29.0866 173.3383,28.4786 173.7713,28.0186 C174.2033,27.5596 174.7973,27.3296 175.5553,27.3296 L178.7183,27.3296 C180.2853,27.3296 181.0963,28.1136 181.1513,29.6816 L182.3673,53.3606 Z M158.6063,53.5236 C158.5523,55.0916 157.7413,55.8746 156.1733,55.8746 L153.0113,55.8746 C152.2533,55.8746 151.6453,55.6456 151.1863,55.1856 C150.7263,54.7266 150.5233,54.1186 150.5783,53.3606 L151.6323,29.6816 C151.6853,28.1136 152.4963,27.3296 154.0653,27.3296 L157.2283,27.3296 C157.9843,27.3296 158.5923,27.5596 159.0523,28.0186 C159.5113,28.4786 159.7143,29.0866 159.6603,29.8436 L158.6063,53.5236 Z M178.5563,1.2976 C179.3673,1.2446 179.9883,1.4196 180.4213,1.8246 C180.8533,2.2306 181.0703,2.8386 181.0703,3.6496 L181.0703,7.0556 C181.0703,8.5696 180.2853,9.4076 178.7183,9.5696 L173.8523,9.9746 C173.3663,10.0296 172.9873,10.2056 172.7173,10.5016 C172.4463,10.7996 172.3113,11.1916 172.3113,11.6776 L172.3113,15.1646 C172.3113,16.2476 172.8513,16.7866 173.9333,16.7866 L179.9343,16.7866 C180.6913,16.7866 181.2853,17.0036 181.7183,17.4356 C182.1503,17.8686 182.3673,18.4636 182.3673,19.2196 L182.3673,22.6256 C182.3673,23.3836 182.1503,23.9776 181.7183,24.4096 C181.2853,24.8436 180.6913,25.0586 179.9343,25.0586 L173.9333,25.0586 C172.8513,25.0586 172.3113,25.5996 172.3113,26.6806 L172.3113,56.3616 C172.3113,57.1196 172.0953,57.7136 171.6633,58.1456 C171.2293,58.5776 170.6353,58.7946 169.8783,58.7946 L162.9043,58.7946 C162.1463,58.7946 161.5523,58.5776 161.1203,58.1456 C160.6873,57.7136 160.4713,57.1196 160.4713,56.3616 L160.4713,26.6806 C160.4713,25.5996 159.9303,25.0586 158.8493,25.0586 L152.8483,25.0586 C152.0913,25.0586 151.4963,24.8436 151.0643,24.4096 C150.6313,23.9776 150.4163,23.3836 150.4163,22.6256 L150.4163,19.2196 C150.4163,18.4636 150.6313,17.8686 151.0643,17.4356 C151.4963,17.0036 152.0913,16.7866 152.8483,16.7866 L158.8493,16.7866 C159.9303,16.7866 160.4713,16.2476 160.4713,15.1646 L160.4713,12.7326 C160.4713,12.1926 160.3223,11.7866 160.0253,11.5156 C159.7283,11.2456 159.3083,11.1386 158.7683,11.1916 L153.5783,11.5966 C152.7673,11.6516 152.1453,11.4756 151.7133,11.0696 C151.2803,10.6646 151.0643,10.0556 151.0643,9.2446 L151.0643,5.8386 C151.0643,4.2716 151.8473,3.4336 153.4163,3.3256 L178.5563,1.2976 Z M131.9343,57.3346 C130.4743,57.3346 129.5823,56.6326 129.2583,55.2266 L127.5553,47.7656 C127.5003,47.6036 127.4743,47.3336 127.4743,46.9546 C127.4743,46.3606 127.6633,45.9006 128.0413,45.5756 C128.4193,45.2516 128.9603,45.0896 129.6633,45.0896 L137.2863,45.0896 C138.7463,45.0896 139.6383,45.7926 139.9623,47.1976 L141.6653,54.6586 C141.7193,54.8206 141.7473,55.0916 141.7473,55.4696 C141.7473,56.0656 141.5563,56.5236 141.1793,56.8486 C140.8003,57.1726 140.2593,57.3346 139.5573,57.3346 L131.9343,57.3346 Z M110.0383,5.2716 C110.0383,3.7036 110.8493,2.9196 112.4713,2.9196 L116.9313,2.9196 L118.8783,2.8386 C118.2823,2.2446 117.9863,1.7306 117.9863,1.2976 C117.9863,0.9206 118.1883,0.6086 118.5943,0.3656 C118.9993,0.1216 119.5263,0.0006 120.1753,0.0006 L129.8253,0.0006 C130.5823,0.0006 131.1763,0.1356 131.6103,0.4056 C132.0423,0.6766 132.2583,1.0276 132.2583,1.4596 C132.2583,2.4326 132.7983,2.9196 133.8803,2.9196 L137.5303,2.9196 C139.1513,2.9196 139.9623,3.7036 139.9623,5.2716 C139.9623,6.0296 139.7463,6.6236 139.3143,7.0556 C138.8803,7.4886 138.2863,7.7046 137.5303,7.7046 L133.8803,7.7046 C132.7983,7.7046 132.2583,7.9756 132.2583,8.5156 C132.2583,9.1106 132.7983,9.4076 133.8803,9.4076 L137.5303,9.4076 C138.2863,9.4076 138.8803,9.5976 139.3143,9.9746 C139.7463,10.3536 139.9623,10.8946 139.9623,11.5966 C139.9623,12.2996 139.7463,12.8536 139.3143,13.2596 C138.8803,13.6646 138.2863,13.8676 137.5303,13.8676 L133.8803,13.8676 C132.7983,13.8676 132.2583,14.1386 132.2583,14.6786 C132.2583,15.2736 132.7983,15.5706 133.8803,15.5706 L137.5303,15.5706 C139.1513,15.5706 139.9623,16.3546 139.9623,17.9226 C139.9623,18.6796 139.7463,19.2746 139.3143,19.7066 C138.8803,20.1396 138.2863,20.3556 137.5303,20.3556 L133.5563,20.3556 C133.2313,20.3556 132.9603,20.4366 132.7453,20.5986 C132.5283,20.7606 132.3393,20.9226 132.1773,21.0846 C132.0153,21.2476 131.8793,21.3826 131.7723,21.4906 C131.3933,21.8146 130.7443,21.9766 129.8253,21.9766 L121.3103,21.9766 C120.5533,21.9766 119.9583,21.9096 119.5263,21.7746 C119.0933,21.6396 118.8783,21.4376 118.8783,21.1666 C118.8783,20.6266 118.3373,20.3556 117.2563,20.3556 L112.4713,20.3556 C111.7133,20.3556 111.1193,20.1396 110.6873,19.7066 C110.2543,19.2746 110.0383,18.6796 110.0383,17.9226 C110.0383,17.1656 110.2543,16.5846 110.6873,16.1786 C111.1193,15.7736 111.7133,15.5706 112.4713,15.5706 L117.2563,15.5706 C117.7423,15.5706 118.1343,15.4896 118.4323,15.3276 C118.7283,15.1646 118.8783,14.9496 118.8783,14.6786 C118.8783,14.1386 118.3373,13.8676 117.2563,13.8676 L112.4713,13.8676 C111.7133,13.8676 111.1193,13.6646 110.6873,13.2596 C110.2543,12.8536 110.0383,12.2996 110.0383,11.5966 C110.0383,10.8946 110.2543,10.3536 110.6873,9.9746 C111.1193,9.5976 111.7133,9.4076 112.4713,9.4076 L117.2563,9.4076 C117.7423,9.4076 118.1343,9.3266 118.4323,9.1636 C118.7283,9.0016 118.8783,8.7866 118.8783,8.5156 C118.8783,7.9756 118.3373,7.7046 117.2563,7.7046 L112.4713,7.7046 C111.7133,7.7046 111.1193,7.4886 110.6873,7.0556 C110.2543,6.6236 110.0383,6.0296 110.0383,5.2716 L110.0383,5.2716 Z M111.8223,49.8736 C110.3633,49.8736 109.4703,49.1716 109.1463,47.7656 L108.9843,47.0356 C108.9293,46.8206 108.9033,46.5486 108.9033,46.2246 C108.9033,44.9816 109.6333,44.3596 111.0923,44.3596 L119.0403,44.3596 C120.4993,44.3596 121.3923,45.0626 121.7163,46.4676 L121.8783,47.1976 C121.9313,47.4146 121.9593,47.6846 121.9593,48.0086 C121.9593,49.2526 121.2293,49.8736 119.7703,49.8736 L111.8223,49.8736 Z M126.2573,54.9826 C126.2573,55.7406 126.0413,56.3346 125.6093,56.7666 C125.1753,57.2006 124.5813,57.4156 123.8243,57.4156 L94.1433,57.4156 C93.3863,57.4156 92.7913,57.2006 92.3593,56.7666 C91.9263,56.3346 91.7113,55.7406 91.7113,54.9826 L91.7113,47.1166 C91.7113,46.3606 91.9263,45.7656 92.3593,45.3326 C92.7913,44.9006 93.3863,44.6836 94.1433,44.6836 L103.1453,44.6836 C103.9013,44.6836 104.4963,44.9006 104.9293,45.3326 C105.3613,45.7656 105.5783,46.3606 105.5783,47.1166 L105.5783,49.8736 C105.5783,50.9556 106.1183,51.4956 107.2003,51.4956 L120.1753,51.4956 C120.9323,51.4956 121.5803,51.2256 122.1213,50.6846 L123.2573,49.5496 C123.7973,49.0096 124.3383,48.7386 124.8793,48.7386 C125.3113,48.7386 125.6493,48.9286 125.8923,49.3066 C126.1363,49.6856 126.2573,50.1986 126.2573,50.8476 L126.2573,54.9826 Z M79.7903,32.6006 C79.7903,31.0336 80.6003,30.2486 82.2223,30.2486 L122.9323,30.2486 C124.0133,30.2486 124.5543,29.8976 124.5543,29.1946 C124.5543,28.9246 124.4193,28.6956 124.1493,28.5056 C123.8783,28.3166 123.4723,28.2216 122.9323,28.2216 L80.9253,28.2216 C80.1673,28.2216 79.5733,28.0056 79.1413,27.5726 C78.7073,27.1406 78.4923,26.5466 78.4923,25.7886 L78.4923,25.5456 C78.4923,24.7886 78.7073,24.1946 79.1413,23.7616 C79.5733,23.3296 80.1673,23.1126 80.9253,23.1126 L136.6383,23.1126 C137.3943,23.1126 137.9883,23.3296 138.4223,23.7616 C138.8543,24.1946 139.0703,24.7886 139.0703,25.5456 L139.0703,40.2236 C139.0703,40.9816 138.8543,41.5756 138.4223,42.0076 C137.9883,42.4406 137.3943,42.6566 136.6383,42.6566 L80.5193,42.6566 C79.7623,42.6566 79.1673,42.4406 78.7353,42.0076 C78.3023,41.5756 78.0863,40.9816 78.0863,40.2236 L78.0863,39.7366 C78.0863,38.9806 78.3023,38.3866 78.7353,37.9526 C79.1673,37.5206 79.7623,37.3046 80.5193,37.3046 L122.9323,37.3046 C124.0133,37.3046 124.5543,36.9266 124.5543,36.1686 C124.5543,35.4126 124.0133,35.0336 122.9323,35.0336 L82.2223,35.0336 C81.4653,35.0336 80.8703,34.8176 80.4383,34.3846 C80.0053,33.9526 79.7903,33.3586 79.7903,32.6006 L79.7903,32.6006 Z M76.8703,5.2716 C76.8703,3.7036 77.6813,2.9196 79.3033,2.9196 L83.7633,2.9196 L85.7093,2.8386 C85.1143,2.2446 84.8173,1.7306 84.8173,1.2976 C84.8173,0.9206 85.0203,0.6086 85.4263,0.3656 C85.8313,0.1216 86.3583,0.0006 87.0073,0.0006 L96.6573,0.0006 C97.4143,0.0006 98.0083,0.1356 98.4413,0.4056 C98.8743,0.6766 99.0903,1.0276 99.0903,1.4596 C99.0903,2.4326 99.6303,2.9196 100.7123,2.9196 L104.4433,2.9196 C106.0643,2.9196 106.8753,3.7036 106.8753,5.2716 C106.8753,6.0296 106.6593,6.6236 106.2273,7.0556 C105.7933,7.4886 105.1993,7.7046 104.4433,7.7046 L100.7123,7.7046 C99.6303,7.7046 99.0903,7.9756 99.0903,8.5156 C99.0903,9.1106 99.6303,9.4076 100.7123,9.4076 L104.4433,9.4076 C105.1993,9.4076 105.7933,9.5976 106.2273,9.9746 C106.6593,10.3536 106.8753,10.8946 106.8753,11.5966 C106.8753,12.2996 106.6593,12.8536 106.2273,13.2596 C105.7933,13.6646 105.1993,13.8676 104.4433,13.8676 L100.7123,13.8676 C99.6303,13.8676 99.0903,14.1386 99.0903,14.6786 C99.0903,15.2736 99.6303,15.5706 100.7123,15.5706 L104.4433,15.5706 C106.0643,15.5706 106.8753,16.3546 106.8753,17.9226 C106.8753,18.6796 106.6593,19.2746 106.2273,19.7066 C105.7933,20.1396 105.1993,20.3556 104.4433,20.3556 L100.3883,20.3556 C100.0633,20.3556 99.7923,20.4366 99.5773,20.5986 C99.3603,20.7606 99.1713,20.9226 99.0093,21.0846 C98.8473,21.2476 98.7113,21.3826 98.6043,21.4906 C98.2253,21.8146 97.5763,21.9766 96.6573,21.9766 L88.1423,21.9766 C87.3853,21.9766 86.7903,21.9096 86.3583,21.7746 C85.9253,21.6396 85.7093,21.4376 85.7093,21.1666 C85.7093,20.6266 85.1683,20.3556 84.0883,20.3556 L79.3033,20.3556 C78.5453,20.3556 77.9513,20.1396 77.5193,19.7066 C77.0853,19.2746 76.8703,18.6796 76.8703,17.9226 C76.8703,17.1656 77.0853,16.5846 77.5193,16.1786 C77.9513,15.7736 78.5453,15.5706 79.3033,15.5706 L84.0883,15.5706 C84.5743,15.5706 84.9663,15.4896 85.2633,15.3276 C85.5603,15.1646 85.7093,14.9496 85.7093,14.6786 C85.7093,14.1386 85.1683,13.8676 84.0883,13.8676 L79.3033,13.8676 C78.5453,13.8676 77.9513,13.6646 77.5193,13.2596 C77.0853,12.8536 76.8703,12.2996 76.8703,11.5966 C76.8703,10.8946 77.0853,10.3536 77.5193,9.9746 C77.9513,9.5976 78.5453,9.4076 79.3033,9.4076 L84.0883,9.4076 C84.5743,9.4076 84.9663,9.3266 85.2633,9.1636 C85.5603,9.0016 85.7093,8.7866 85.7093,8.5156 C85.7093,7.9756 85.1683,7.7046 84.0883,7.7046 L79.3033,7.7046 C78.5453,7.7046 77.9513,7.4886 77.5193,7.0556 C77.0853,6.6236 76.8703,6.0296 76.8703,5.2716 L76.8703,5.2716 Z M87.3313,45.6566 C88.0333,45.6566 88.5603,45.8196 88.9133,46.1436 C89.2643,46.4676 89.4403,46.9276 89.4403,47.5226 C89.4403,47.8466 89.4123,48.1176 89.3593,48.3336 L87.6563,55.2266 C87.3313,56.6326 86.4113,57.3346 84.8993,57.3346 L77.5193,57.3346 C76.8163,57.3346 76.2883,57.1726 75.9373,56.8486 C75.5853,56.5236 75.4103,56.0656 75.4103,55.4696 C75.4103,55.1456 75.4373,54.8756 75.4913,54.6586 L77.1943,47.7656 C77.5193,46.3606 78.4373,45.6566 79.9523,45.6566 L87.3313,45.6566 Z M24.3283,20.3556 C23.2463,20.3556 22.7063,20.8156 22.7063,21.7336 C22.7063,22.6536 23.2463,23.1126 24.3283,23.1126 L41.4403,23.1126 C42.5203,23.1126 43.0613,22.6536 43.0613,21.7336 C43.0613,20.8156 42.5203,20.3556 41.4403,20.3556 L24.3283,20.3556 Z M13.2183,12.8946 C12.6773,12.8946 12.2723,13.0036 12.0023,13.2186 C11.7313,13.4356 11.5963,13.7336 11.5963,14.1106 C11.5963,14.4896 11.7313,14.7876 12.0023,15.0026 C12.2723,15.2196 12.6773,15.3276 13.2183,15.3276 L52.4693,15.3276 C53.0083,15.3276 53.4143,15.2196 53.6853,15.0026 C53.9553,14.7876 54.0903,14.4896 54.0903,14.1106 C54.0903,13.7336 53.9553,13.4356 53.6853,13.2186 C53.4143,13.0036 53.0083,12.8946 52.4693,12.8946 L13.2183,12.8946 Z M60.1733,29.2756 C60.9293,29.2756 61.5233,29.4926 61.9573,29.9246 C62.3893,30.3576 62.6053,30.9516 62.6053,31.7086 L62.6053,32.6006 C62.6053,33.3586 62.3893,33.9526 61.9573,34.3846 C61.5233,34.8176 60.9293,35.0336 60.1733,35.0336 L42.1693,35.2766 C41.0873,35.2766 40.5473,35.6556 40.5473,36.4116 C40.5473,36.7906 40.6823,37.0886 40.9533,37.3046 C41.2233,37.5206 41.6283,37.6286 42.1693,37.6286 L59.6863,37.6286 C60.4433,37.6286 61.0373,37.8456 61.4703,38.2776 C61.9023,38.7106 62.1193,39.3046 62.1193,40.0616 L62.1193,41.2776 C62.1193,42.0356 61.9023,42.6296 61.4703,43.0616 C61.0373,43.4956 60.4433,43.7106 59.6863,43.7106 L42.1693,43.7106 C41.6283,43.7106 41.2233,43.8056 40.9533,43.9946 C40.6823,44.1846 40.5473,44.4136 40.5473,44.6836 C40.5473,44.9546 40.6823,45.1846 40.9533,45.3736 C41.2233,45.5636 41.6283,45.6566 42.1693,45.6566 L62.1193,45.6566 C62.8753,45.6566 63.4703,45.8736 63.9033,46.3056 C64.3353,46.7396 64.5523,47.3336 64.5523,48.0896 L64.5523,48.9816 C64.5523,49.7396 64.3353,50.3336 63.9033,50.7656 C63.4703,51.1996 62.8753,51.4146 62.1193,51.4146 L42.1693,51.4146 C41.0873,51.4146 40.5473,51.9556 40.5473,53.0366 L40.5473,53.9286 C40.5473,55.4426 40.0333,56.5926 39.0073,57.3756 C37.9793,58.1586 36.6553,58.5516 35.0333,58.5516 L23.5993,58.5516 C22.8953,58.5516 22.3423,58.4296 21.9363,58.1866 C21.5313,57.9426 21.3283,57.6326 21.3283,57.2536 C21.3283,56.7666 21.5433,56.3346 21.9773,55.9566 L23.7613,54.2536 C24.3553,53.6586 24.6533,53.0366 24.6533,52.3876 C24.6533,52.1176 24.5173,51.8886 24.2473,51.6986 C23.9763,51.5096 23.5713,51.4146 23.0313,51.4146 L2.5953,51.4146 C1.8373,51.4146 1.2433,51.1996 0.8113,50.7656 C0.3773,50.3336 0.1623,49.7396 0.1623,48.9816 L0.1623,48.0896 C0.1623,47.3336 0.3773,46.7396 0.8113,46.3056 C1.2433,45.8736 1.8373,45.6566 2.5953,45.6566 L23.0313,45.6566 C23.5713,45.6566 23.9763,45.5636 24.2473,45.3736 C24.5173,45.1846 24.6533,44.9546 24.6533,44.6836 C24.6533,44.4136 24.5173,44.1846 24.2473,43.9946 C23.9763,43.8056 23.5713,43.7106 23.0313,43.7106 L4.6223,43.7106 C3.8643,43.7106 3.2703,43.4956 2.8383,43.0616 C2.4053,42.6296 2.1893,42.0356 2.1893,41.2776 L2.1893,40.0616 C2.1893,39.3046 2.4053,38.7106 2.8383,38.2776 C3.2703,37.8456 3.8643,37.6286 4.6223,37.6286 L23.0313,37.6286 C24.1123,37.6286 24.6533,37.2776 24.6533,36.5746 C24.6533,35.8726 24.1123,35.5196 23.0313,35.5196 L4.1363,35.7636 C3.3783,35.7636 2.7843,35.5476 2.3513,35.1146 C1.9183,34.6826 1.7033,34.0886 1.7033,33.3306 L1.7033,32.4386 C1.7033,31.6816 1.9183,31.0876 2.3513,30.6546 C2.7843,30.2226 3.3783,30.0056 4.1363,30.0056 L60.1733,29.2756 Z M7.1363,4.2986 C6.9743,3.9736 6.8933,3.7036 6.8933,3.4876 C6.8933,3.0556 7.0963,2.7046 7.5013,2.4326 C7.9073,2.1636 8.4603,2.0276 9.1633,2.0276 L17.3543,2.0276 C18.7593,2.0276 19.7333,2.6236 20.2743,3.8116 L21.0033,5.4336 C21.3813,6.2446 22.0033,6.6496 22.8693,6.6496 L23.6803,6.6496 C24.1663,6.6496 24.5723,6.5156 24.8963,6.2446 C25.2203,5.9746 25.3833,5.5956 25.3833,5.1096 L25.3833,4.7036 C25.3833,4.3796 25.3953,4.1236 25.4233,3.9336 C25.4503,3.7446 25.4363,3.5966 25.3833,3.4876 L25.3023,3.4876 C24.7603,2.9476 24.4913,2.4066 24.4913,1.8656 C24.4913,1.4336 24.6793,1.0946 25.0583,0.8516 C25.4363,0.6086 25.9503,0.4866 26.5993,0.4866 L37.7903,0.4866 C38.5473,0.4866 39.1413,0.7036 39.5743,1.1356 C40.0063,1.5686 40.2233,2.1636 40.2233,2.9196 L40.1423,5.0286 C40.1423,6.1106 40.6823,6.6496 41.7643,6.6496 L42.6563,6.6496 C43.5203,6.6496 44.0353,6.4876 44.1973,6.1636 C44.2503,6.0556 44.2783,5.9206 44.2783,5.7576 C44.2783,5.5426 44.1973,5.2716 44.0353,4.9466 C43.8183,4.5696 43.7103,4.1636 43.7103,3.7306 C43.7103,2.5956 44.4123,2.0276 45.8193,2.0276 L56.4423,2.0276 C57.1443,2.0276 57.6993,2.1636 58.1053,2.4326 C58.5103,2.7046 58.7133,3.0556 58.7133,3.4876 C58.7133,3.7036 58.6323,3.9736 58.4703,4.2986 L58.2263,4.7036 C58.0643,5.0286 57.9833,5.2996 57.9833,5.5146 C57.9833,6.2726 58.4703,6.6496 59.4433,6.6496 L63.1733,6.6496 C63.9303,6.6496 64.5243,6.8666 64.9573,7.2986 C65.3893,7.7326 65.6063,8.3266 65.6063,9.0826 L65.6063,16.6246 C65.6063,17.3826 65.3893,17.9766 64.9573,18.4086 C64.5243,18.8426 63.9303,19.0576 63.1733,19.0576 L57.9023,19.0576 C56.8203,19.0576 56.2803,19.5986 56.2803,20.6796 L56.2803,25.3836 C56.2803,26.1406 56.0633,26.7356 55.6313,27.1676 C55.1983,27.6006 54.6043,27.8156 53.8473,27.8156 L12.0833,27.8156 C11.3253,27.8156 10.7313,27.6006 10.2993,27.1676 C9.8653,26.7356 9.6503,26.1406 9.6503,25.3836 L9.6503,20.6796 C9.6503,19.5986 9.1093,19.0576 8.0283,19.0576 L2.4333,19.0576 C1.6753,19.0576 1.0813,18.8426 0.6483,18.4086 C0.2153,17.9766 0.0003,17.3826 0.0003,16.6246 L0.0003,9.0826 C0.0003,8.3266 0.2153,7.7326 0.6483,7.2986 C1.0813,6.8666 1.6753,6.6496 2.4333,6.6496 L6.0823,6.6496 C7.0013,6.6496 7.4603,6.2986 7.4603,5.5956 C7.4603,5.2716 7.4063,5.0016 7.2983,4.7846 L7.1363,4.2986 Z" id="Fill-21" fill="#FEFEFE" mask="url(#mask-2)"></path>
        </g>
    </g>
</svg>